{"title":"Det Nya Landet aka The New Country (2000)","uid":7832105,"size":1466382665,"categoryP":"video","categoryS":"movies","magnet":"?xt=urn:btih:363dad646da481b7d253bde1684bc0982738c7ad&amp;dn=Det+Nya+Landet+aka+The+New+Country+%282000%29&amp;tr=udp%3A%2F%2Ftracker.openbittorrent.com%3A80&amp;tr=udp%3A%2F%2Fopen.demonii.com%3A1337&amp;tr=udp%3A%2F%2Ftracker.coppersurfer.tk%3A6969&amp;tr=udp%3A%2F%2Fexodus.desync.com%3A6969","seeders":2,"leechers":0,"uploader":"rpessoa","files":6,"time":1353080202,"description":"&quot;Two refugees, Ali and Massoud run away from their asylum camp and meet Louise, a former miss Sweden. Together in an old rusty car they are on the run from the police and old memories through the Swedish summer countryside.&quot; - IMDB\n\nDet Nya Landet CD1.avi\nFormat : AVI\nFormat/Info : Audio Video Interleave\nFile size : 700 MiB\nDuration : 1h 4mn\nOverall bit rate : 1 505 Kbps\nWriting library : VirtualDub build 0/release\n\nVideo\nID : 0\nFormat : MPEG-4 Visual\nFormat profile : Advanced Simple@L5\nFormat settings, BVOP : 2\nFormat settings, QPel : No\nFormat settings, GMC : No warppoints\nFormat settings, Matrix : Default (H.263)\nMuxing mode : Packed bitstream\nCodec ID : XVID\nCodec ID/Hint : XviD\nDuration : 1h 4mn\nBit rate : 1 303 Kbps\nWidth : 640 pixels\nHeight : 400 pixels\nDisplay aspect ratio : 1.600\nFrame rate : 25.000 fps\nColor space : YUV\nChroma subsampling : 4:2:0\nBit depth : 8 bits\nScan type : Progressive\nCompression mode : Lossy\nBits/(Pixel*Frame) : 0.204\nStream size : 606 MiB (87%)\nWriting library : XviD 1.0.2 (UTC 2004-08-29)\n\nAudio\nID : 1\nFormat : AC-3\nFormat/Info : Audio Coding 3\nMode extension : CM (complete main)\nCodec ID : 2000\nDuration : 1h 4mn\nBit rate mode : Constant\nBit rate : 192 Kbps\nChannel(s) : 2 channels\nChannel positions : Front: L R\nSampling rate : 48.0 KHz\nBit depth : 16 bits\nCompression mode : Lossy\nStream size : 89.2 MiB (13%)\nAlignment : Split accross interleaves\nInterleave, duration : 40 ms (1.00 video frame)\nInterleave, preload duration : 500 ms\n\nCD2:\n\nLandet CD2.avi\nFormat : AVI\nFormat/Info : Audio Video Interleave\nFile size : 699 MiB\nDuration : 1h 5mn\nOverall bit rate : 1 484 Kbps\nWriting library : VirtualDub build 0/release\n\nVideo\nID : 0\nFormat : MPEG-4 Visual\nFormat profile : Advanced Simple@L5\nFormat settings, BVOP : 2\nFormat settings, QPel : No\nFormat settings, GMC : No warppoints\nFormat settings, Matrix : Default (H.263)\nMuxing mode : Packed bitstream\nCodec ID : XVID\nCodec ID/Hint : XviD\nDuration : 1h 5mn\nBit rate : 1 283 Kbps\nWidth : 640 pixels\nHeight : 400 pixels\nDisplay aspect ratio : 1.600\nFrame rate : 25.000 fps\nColor space : YUV\nChroma subsampling : 4:2:0\nBit depth : 8 bits\nScan type : Progressive\nCompression mode : Lossy\nBits/(Pixel*Frame) : 0.200\nStream size : 604 MiB (86%)\nWriting library : XviD 1.0.2 (UTC 2004-08-29)\n\nAudio\nID : 1\nFormat : AC-3\nFormat/Info : Audio Coding 3\nMode extension : CM (complete main)\nCodec ID : 2000\nDuration : 1h 5mn\nBit rate mode : Constant\nBit rate : 192 Kbps\nChannel(s) : 2 channels\nChannel positions : Front: L R\nSampling rate : 48.0 KHz\nBit depth : 16 bits\nCompression mode : Lossy\nDelay relative to video : 16ms\nStream size : 90.4 MiB (13%)\nAlignment : Split accross interleaves\nInterleave, duration : 40 ms (1.00 video frame)\nInterleave, preload duration : 500 ms\n\n\nSubs: English and Portuguese\n\nThanks to derGast @ KG","torrent":{"xt":"urn:btih:363dad646da481b7d253bde1684bc0982738c7ad","amp;dn":"Det+Nya+Landet+aka+The+New+Country+%282000%29","amp;tr":["udp%3A%2F%2Ftracker.openbittorrent.com%3A80","udp%3A%2F%2Fopen.demonii.com%3A1337","udp%3A%2F%2Ftracker.coppersurfer.tk%3A6969","udp%3A%2F%2Fexodus.desync.com%3A6969"],"infoHash":"363dad646da481b7d253bde1684bc0982738c7ad","infoHashBuffer":{"type":"Buffer","data":[54,61,173,100,109,164,129,183,210,83,189,225,104,75,192,152,39,56,199,173]},"announce":[],"urlList":[]}}